<?xml version="1.0" encoding="utf-8"?>
<!-- Generator: Adobe Illustrator 24.0.1, SVG Export Plug-In . SVG Version: 6.00 Build 0)  -->
<svg version="1.1" id="图层_1" xmlns="http://www.w3.org/2000/svg" xmlns:xlink="http://www.w3.org/1999/xlink" x="0px" y="0px"
	 viewBox="0 0 17.5 14" style="enable-background:new 0 0 17.5 14;" xml:space="preserve">
<style type="text/css">
	.st0{fill:#3E4055;}
</style>
<path class="st0" d="M4.9,2C4.5,1.7,4,1.7,3.7,2.1c0,0,0,0,0,0L0.2,6.5c-0.3,0.3-0.3,0.8,0,1.1l3.5,4.4C4,12.3,4.6,12.3,4.9,12
	c0.4-0.3,0.4-0.8,0.1-1.2L2,7L5,3.2C5.3,2.8,5.3,2.3,4.9,2z M17.3,6.5l-3.5-4.4c-0.3-0.4-0.9-0.4-1.2-0.1c-0.4,0.3-0.4,0.8-0.1,1.2
	L15.5,7l-3.1,3.8c-0.3,0.4-0.2,0.9,0.2,1.2c0.4,0.3,0.9,0.2,1.2-0.1l3.5-4.4C17.5,7.2,17.5,6.8,17.3,6.5z M10.2,0
	c-0.5-0.1-0.9,0.2-1,0.7c0,0,0,0,0,0L6.6,12.9c-0.1,0.5,0.2,0.9,0.6,1.1c0,0,0,0,0,0h0.2c0.4,0,0.8-0.3,0.9-0.7l2.6-12.2
	C11,0.6,10.7,0.1,10.2,0C10.3,0,10.2,0,10.2,0z"/>
</svg>
