<?xml version="1.0" encoding="utf-8"?>
<!-- Generator: Adobe Illustrator 24.0.1, SVG Export Plug-In . SVG Version: 6.00 Build 0)  -->
<svg version="1.1" id="图层_1" xmlns="http://www.w3.org/2000/svg" xmlns:xlink="http://www.w3.org/1999/xlink" x="0px" y="0px"
	 viewBox="0 0 14 14" style="enable-background:new 0 0 14 14;" xml:space="preserve">
<style type="text/css">
	.st0{fill:#3D3D3D;}
</style>
<path class="st0" d="M7,12.8c3.2,0,5.8-2.6,5.8-5.8S10.2,1.2,7,1.2S1.2,3.8,1.2,7S3.8,12.8,7,12.8z M7,14c-3.9,0-7-3.1-7-7
	s3.1-7,7-7s7,3.1,7,7S10.9,14,7,14z M7.6,7.3V4.1c0-0.3-0.3-0.6-0.6-0.6c-0.3,0-0.6,0.3-0.6,0.6v3.5c0,0.2,0.1,0.3,0.2,0.4l1.7,1.7
	c0.2,0.2,0.6,0.2,0.8,0c0,0,0,0,0,0c0.2-0.2,0.2-0.6,0-0.8L7.6,7.3z"/>
</svg>
