<?xml version="1.0" encoding="utf-8"?>
<!-- Generator: Adobe Illustrator 24.0.1, SVG Export Plug-In . SVG Version: 6.00 Build 0)  -->
<svg version="1.1" id="图层_1" xmlns="http://www.w3.org/2000/svg" xmlns:xlink="http://www.w3.org/1999/xlink" x="0px" y="0px"
	 viewBox="0 0 14 14" style="enable-background:new 0 0 14 14;" xml:space="preserve">
<style type="text/css">
	.st0{fill:#000000;}
</style>
<path class="st0" d="M0,3.5h3.5V0H0V3.5L0,3.5z M5.3,14h3.5v-3.5H5.3V14L5.3,14z M0,14h3.5v-3.5H0V14L0,14z M0,8.8h3.5V5.3H0V8.8
	L0,8.8z M5.3,8.8h3.5V5.3H5.3V8.8L5.3,8.8z M10.5,0v3.5H14V0H10.5L10.5,0z M5.3,3.5h3.5V0H5.3V3.5L5.3,3.5z M10.5,8.8H14V5.3h-3.5
	V8.8L10.5,8.8z M10.5,14H14v-3.5h-3.5V14L10.5,14z"/>
</svg>
